# xmcd
#
# Track frame offsets: 
#        150
#        19821
#        34209
#        51831
#        69078
#        87603
#        102846
#        117245
#        141692
#        155952
#        174628
#        191269
#        206896
#        222846
#        247067
#        260682
#        271042
#        282636
#        301625
#        313643
#        326265
#        340404
#
# Disc length: 4780 seconds
#
# Revision: 0
# Processed by: cddbd v1.5.2PL0 Copyright (c) Steve Scherf et al.
# Submitted via: ExactAudioCopy v1.3
#
DISCID=5412aa16
DTITLE=Various Artist - Akella Presents - vol. 127 - Rockin' Rollers 
DTITLE=Blues  CD1
DYEAR=2018
DGENRE=Rock and Roll
TTITLE0=Green - Bad Girls
TTITLE1=Randy Volin - Come Back Home
TTITLE2=Scott Ramminger - This Town's Seen the Last of Me
TTITLE3=Wailin' Walker - Pretty Girls
TTITLE4=The Tailgators - Cajun Honey
TTITLE5=2000 Lbs Of Blues - Roll Over and Turn Out the Lights
TTITLE6=James Montgomery - Shake Your Moneymaker
TTITLE7=Les Wilson - It Wasn't Me
TTITLE8=Mike Eldred - Jimmy, Jimmy
TTITLE9=Jock Rockenbach - Leave you in Chicago
TTITLE10=Dan Beaver - Just a Little Bit
TTITLE11=Mike Goudreau - Crazy Johnny
TTITLE12=Lloyd Jones - No More Crying
TTITLE13=Brett Wellman - Recipe
TTITLE14=Austin Young - Who's Coming Out
TTITLE15=Rockocola - Rollin' Man
TTITLE16=Alastair Greene - Look Out Baby
TTITLE17=George Thorogood - Moving
TTITLE18=Anthony Gomes - When I Play The Blues
TTITLE19=Tinsley Ellis - Satisfied
TTITLE20=Sterling Koch - I Wanna Be Your Driver
TTITLE21=Hot'n'Nasty - Go To The Woman
EXTD=
EXTT0=
EXTT1=
EXTT2=
EXTT3=
EXTT4=
EXTT5=
EXTT6=
EXTT7=
EXTT8=
EXTT9=
EXTT10=
EXTT11=
EXTT12=
EXTT13=
EXTT14=
EXTT15=
EXTT16=
EXTT17=
EXTT18=
EXTT19=
EXTT20=
EXTT21=
PLAYORDER=
